<svg width="16" height="25" viewBox="0 0 16 25" fill="none" xmlns="http://www.w3.org/2000/svg">
<path d="M14.4202 15.7302H5.11555L5.58274 14.7786L13.3452 14.7646C13.6077 14.7646 13.8327 14.5771 13.8796 14.3177L14.9546 8.3005C14.9827 8.14269 14.9406 7.98019 14.8374 7.85675C14.7865 7.796 14.7229 7.74707 14.6511 7.71334C14.5793 7.67961 14.5011 7.6619 14.4218 7.66144L4.5468 7.62863L4.46243 7.23175C4.4093 6.97863 4.18118 6.79425 3.9218 6.79425H1.50774C1.36146 6.79425 1.22116 6.85236 1.11773 6.9558C1.01429 7.05924 0.956177 7.19953 0.956177 7.34581C0.956177 7.4921 1.01429 7.63239 1.11773 7.73583C1.22116 7.83926 1.36146 7.89738 1.50774 7.89738H3.47493L3.84368 9.6505L4.75149 14.0458L3.58274 15.9536C3.52204 16.0355 3.48549 16.1328 3.4772 16.2344C3.46892 16.336 3.48924 16.438 3.53586 16.5286C3.62961 16.7146 3.81868 16.8318 4.02805 16.8318H5.0093C4.80011 17.1096 4.68712 17.448 4.68743 17.7958C4.68743 18.6802 5.40618 19.3989 6.29055 19.3989C7.17493 19.3989 7.89368 18.6802 7.89368 17.7958C7.89368 17.4474 7.77805 17.1083 7.5718 16.8318H10.089C9.8798 17.1096 9.76681 17.448 9.76711 17.7958C9.76711 18.6802 10.4859 19.3989 11.3702 19.3989C12.2546 19.3989 12.9734 18.6802 12.9734 17.7958C12.9734 17.4474 12.8577 17.1083 12.6515 16.8318H14.4218C14.7249 16.8318 14.9734 16.5849 14.9734 16.2802C14.9725 16.1341 14.9138 15.9942 14.8102 15.8912C14.7065 15.7881 14.5664 15.7303 14.4202 15.7302ZM4.77649 8.71613L13.7734 8.74581L12.8921 13.6802L5.82493 13.6927L4.77649 8.71613ZM6.29055 18.2896C6.01868 18.2896 5.7968 18.0677 5.7968 17.7958C5.7968 17.5239 6.01868 17.3021 6.29055 17.3021C6.56243 17.3021 6.7843 17.5239 6.7843 17.7958C6.7843 17.9268 6.73228 18.0524 6.63969 18.1449C6.54709 18.2375 6.4215 18.2896 6.29055 18.2896ZM11.3702 18.2896C11.0984 18.2896 10.8765 18.0677 10.8765 17.7958C10.8765 17.5239 11.0984 17.3021 11.3702 17.3021C11.6421 17.3021 11.864 17.5239 11.864 17.7958C11.864 17.9268 11.812 18.0524 11.7194 18.1449C11.6268 18.2375 11.5012 18.2896 11.3702 18.2896Z" fill="white"/>
</svg>
